# xmcd
#
# Track frame offsets:
#	150
#	29071
#	51489
#	85813
#	108408
#	137621
#	159972
#	191776
#	210588
#	226433
#
# Disc length: 3248 seconds
#
# Revision: 2
# Processed by: cddbd v1.4PL0 Copyright (c) Steve Scherf et al.
# Submitted via: audiograbber 1.80
#
DISCID=890cae0a
DTITLE=The Nimmo Brothers - Coming Your Way
DYEAR=2001
DGENRE=Blues
TTITLE0=She's All Mine
TTITLE1=She Fills My Cup
TTITLE2=Long Way From Everything
TTITLE3=Coming Your Way
TTITLE4=All I Want
TTITLE5=Flat Broke
TTITLE6=If I Could See Through Your Eyes
TTITLE7=Live For Another Day
TTITLE8=I'll Be Back Someday
TTITLE9=You're The Reason
EXTD=
EXTT0=
EXTT1=
EXTT2=
EXTT3=
EXTT4=
EXTT5=
EXTT6=
EXTT7=
EXTT8=
EXTT9=
PLAYORDER=
